<?xml version="1.0" encoding="utf-8"?>
<!-- Generator: Adobe Illustrator 15.0.0, SVG Export Plug-In  -->
<!DOCTYPE svg PUBLIC "-//W3C//DTD SVG 1.1//EN" "http://www.w3.org/Graphics/SVG/1.1/DTD/svg11.dtd" [
	<!ENTITY ns_flows "http://ns.adobe.com/Flows/1.0/">
]>
<svg version="1.1"
	 xmlns="http://www.w3.org/2000/svg" xmlns:xlink="http://www.w3.org/1999/xlink" xmlns:a="http://ns.adobe.com/AdobeSVGViewerExtensions/3.0/"
	 x="0px" y="0px" width="32px" height="32px" viewBox="-3.944 -3.458 32 32"
	 overflow="visible" enable-background="new -3.944 -3.458 32 32" xml:space="preserve">
<defs>
</defs>
<path fill="#666666" d="M5.542,17.258c0-0.688-0.556-1.274-1.243-1.274H1.247C0.558,15.983,0,16.569,0,17.258
	c0,0.691,0.558,1.28,1.247,1.28h3.052C4.986,18.538,5.542,17.949,5.542,17.258z M1.247,9.588h3.052c0.688,0,1.243-0.426,1.243-1.117
	c0-0.688-0.556-1.12-1.243-1.12H1.247C0.558,7.351,0,7.783,0,8.471C0,9.162,0.558,9.588,1.247,9.588z"/>
<path fill="#666666" d="M23.493,3.047v19.69c0,1.713-1.183,3.154-2.895,3.154H5.501c-1.711,0-3.104-1.441-3.104-3.154v-3.238h1.899
	c1.36,0,2.466-0.879,2.466-2.241c0-1.36-1.105-2.234-2.466-2.234H2.397v-4.476h1.899c1.36,0,2.466-0.876,2.466-2.233
	c0-1.362-1.105-2.242-2.466-2.242H2.397V3.047C2.397,1.337,3.79,0,5.501,0h15.098C22.311,0,23.493,1.337,23.493,3.047z"/>
</svg>
